# xmcd
#
# Track frame offsets:
#	150
#	13325
#	29302
#	41325
#	55939
#	70190
#	83687
#	101895
#	115642
#	128520
#	141940
#	157792
#	170182
#	183605
#
# Disc length: 2623 seconds
#
# Revision: 0
# Processed by: cddbd v1.4PL0 Copyright (c) Steve Scherf et al.
# Submitted via: EasyCDDAExtractor 4.6.0.1
#
DISCID=b80a3d0e
DTITLE=Varios - Disco De Ouro Sertanejo
DYEAR=2000
DGENRE=Sertanejo
TTITLE0=Mocóca and paraíso - mãe terra
TTITLE1=Trindade and samuel - vestido molhado
TTITLE2=Cacique e pajé - torto também é certo
TTITLE3=Geraldo viola and pantanal - amargurado
TTITLE4=Divino and donizete - chamada a cobrar
TTITLE5=Mocóca and paraiso - cópia da chave
TTITLE6=Caçula and marinheiro - igrejinha da serra
TTITLE7=Cacique and pajé - brisa mensageira
TTITLE8=Carreiro and carreirinho - missão cumprida
TTITLE9=Trindade 7 samuel - boate azul
TTITLE10=Geraldo viola and pantanal - azulão do reino encantado
TTITLE11=Divino 7 donizete - rei do gado
TTITLE12=Carreiro - and carreirinho - rosa branca
TTITLE13=Caçula and marinheiro - brigas de amor
EXTD=
EXTT0=
EXTT1=
EXTT2=
EXTT3=
EXTT4=
EXTT5=
EXTT6=
EXTT7=
EXTT8=
EXTT9=
EXTT10=
EXTT11=
EXTT12=
EXTT13=
PLAYORDER=
